<svg width="60" height="60" viewBox="0 0 60 60" fill="none" xmlns="http://www.w3.org/2000/svg">
<path d="M58.4726 27.3647L32.6365 1.53004C31.1496 0.0422314 28.7365 0.0422314 27.2473 1.53004L21.8834 6.89536L28.6887 13.7007C30.2707 13.1668 32.0839 13.5249 33.3443 14.7854C33.945 15.3866 34.3644 16.1447 34.5545 16.9731C34.7446 17.8015 34.6977 18.6666 34.4192 19.4696L40.9779 26.0293C42.5646 25.4822 44.396 25.8357 45.6626 27.105C47.4345 28.8755 47.4345 31.7457 45.6626 33.5171C45.2415 33.9384 44.7416 34.2725 44.1913 34.5005C43.6411 34.7285 43.0513 34.8459 42.4557 34.8459C41.86 34.8459 41.2702 34.7285 40.72 34.5005C40.1697 34.2725 39.6698 33.9384 39.2487 33.5171C38.6161 32.8841 38.1848 32.078 38.0093 31.2005C37.8337 30.3229 37.9216 29.4131 38.262 28.5854L32.1457 22.4686L32.1448 38.566C32.5886 38.7845 32.9937 39.0739 33.3443 39.4229C35.1157 41.1933 35.1157 44.0625 33.3443 45.8368C31.5729 47.6072 28.7018 47.6072 26.9323 45.8368C25.1614 44.063 25.016 41.1938 26.7865 39.4229C27.2243 38.9855 27.656 38.655 28.1248 38.4338V22.1874C27.656 21.9661 27.2248 21.638 26.786 21.1979C25.445 19.8572 25.1942 17.8885 25.8823 16.2404L19.2106 9.53114L1.51339 27.2452C0.0251087 28.7344 0.0344837 31.1475 1.52276 32.6358L27.3631 58.4705C28.8504 59.9583 31.2654 59.9583 32.7551 58.4705L58.4707 32.7558C59.959 31.2671 59.9604 28.8525 58.4726 27.3647V27.3647Z" fill="#F34F29"/>
</svg>
