<svg width="60" height="60" viewBox="0 0 60 60" fill="none" xmlns="http://www.w3.org/2000/svg">
<path fill-rule="evenodd" clip-rule="evenodd" d="M30.0002 2.39209C14.3688 2.39209 1.69336 15.0647 1.69336 30.699C1.69336 43.2062 9.80414 53.8163 21.0513 57.5597C22.4655 57.8222 22.9849 56.9457 22.9849 56.198C22.9849 55.523 22.9587 53.2932 22.9465 50.9279C15.0715 52.6402 13.4098 47.588 13.4098 47.588C12.1221 44.3162 10.2668 43.4462 10.2668 43.4462C7.69805 41.6893 10.4604 41.7258 10.4604 41.7258C13.3024 41.9251 14.7996 44.6429 14.7996 44.6429C17.3243 48.9694 21.4216 47.7188 23.037 46.996C23.291 45.1665 24.0246 43.9172 24.8341 43.2104C18.5468 42.4955 11.937 40.0679 11.937 29.2215C11.937 26.131 13.0432 23.6058 14.854 21.623C14.5596 20.9105 13.5907 18.0315 15.1277 14.1324C15.1277 14.1324 17.5043 13.3716 22.9137 17.034C25.1721 16.4063 27.5941 16.0908 30.0002 16.0801C32.4049 16.0908 34.8284 16.4054 37.091 17.033C42.4938 13.3707 44.8676 14.1315 44.8676 14.1315C46.4084 18.0301 45.4395 20.9096 45.1455 21.6221C46.9605 23.6049 48.0588 26.1301 48.0588 29.2205C48.0588 40.0927 41.4368 42.4862 35.1335 43.1874C36.1493 44.0658 37.054 45.789 37.054 48.4294C37.054 52.2169 37.0212 55.2652 37.0212 56.1976C37.0212 56.9508 37.5312 57.8335 38.9655 57.5555C50.2062 53.8083 58.3076 43.2015 58.3076 30.699C58.3071 15.0657 45.633 2.39256 30.0002 2.39256V2.39209Z" fill="white"/>
<path d="M12.4149 43.0341C12.3525 43.1747 12.1313 43.2169 11.9297 43.1208C11.7234 43.0289 11.6086 42.8372 11.6752 42.6961C11.7361 42.5508 11.9578 42.511 12.1627 42.608C12.3689 42.7004 12.4861 42.8939 12.4144 43.0346L12.4149 43.0341ZM13.5614 44.3133C13.4269 44.4385 13.163 44.3804 12.9839 44.1821C12.7983 43.9852 12.7636 43.7213 12.9009 43.5943C13.0406 43.4696 13.2966 43.5286 13.4822 43.7255C13.6669 43.9252 13.7034 44.1868 13.5619 44.3138L13.5614 44.3133ZM14.678 45.9432C14.5045 46.0641 14.2205 45.9511 14.0452 45.6994C13.8717 45.4472 13.8717 45.1449 14.0499 45.0244C14.2247 44.9035 14.5045 45.0127 14.6827 45.2621C14.8552 45.5175 14.8552 45.8199 14.678 45.9427V45.9432ZM16.2066 47.5186C16.0519 47.6897 15.7209 47.6438 15.4791 47.4108C15.232 47.1825 15.1631 46.8577 15.3183 46.6871C15.4758 46.5155 15.8081 46.5633 16.0514 46.7949C16.2984 47.0227 16.373 47.348 16.2075 47.5182L16.2066 47.5186ZM18.3159 48.4332C18.247 48.6549 17.9292 48.7557 17.6081 48.661C17.288 48.5639 17.0784 48.3047 17.1441 48.0807C17.2097 47.8571 17.5299 47.7525 17.8528 47.8533C18.173 47.9499 18.3825 48.2077 18.3159 48.4332ZM20.633 48.6024C20.6409 48.8358 20.3691 49.029 20.033 49.0336C19.6941 49.0416 19.4199 48.8522 19.4166 48.6225C19.4166 48.3868 19.6828 48.196 20.0213 48.1894C20.3574 48.1833 20.6334 48.3708 20.6334 48.6019L20.633 48.6024ZM22.7883 48.2358C22.8286 48.4632 22.5947 48.6971 22.2605 48.7594C21.9324 48.8204 21.6277 48.6788 21.5855 48.4533C21.5452 48.2199 21.7833 47.986 22.1114 47.9255C22.4461 47.8679 22.7461 48.0052 22.7883 48.2363V48.2358Z" fill="white"/>
</svg>
