<svg width="24" height="24" viewBox="0 0 24 24" fill="none" xmlns="http://www.w3.org/2000/svg">
<circle cx="12" cy="12" r="12" fill="#3F424D"/>
<g opacity="0.5">
<path d="M10.3077 16.2879C7.23077 17.1439 7.23077 14.8611 6 14.5758ZM14.6154 18V15.7914C14.6385 15.5193 14.5988 15.2457 14.4991 14.9889C14.3993 14.732 14.2418 14.4979 14.0369 14.3019C15.9692 14.1021 18 13.423 18 10.307C17.9998 9.51016 17.6693 8.74392 17.0769 8.16683C17.3575 7.46972 17.3376 6.69919 17.0215 6.01529C17.0215 6.01529 16.2954 5.81555 14.6154 6.85993C13.2049 6.50542 11.7181 6.50542 10.3077 6.85993C8.62769 5.81555 7.90154 6.01529 7.90154 6.01529C7.58546 6.69919 7.56563 7.46972 7.84615 8.16683C7.24931 8.7482 6.91848 9.52137 6.92308 10.3241C6.92308 13.4173 8.95385 14.0964 10.8862 14.319C10.6837 14.513 10.5275 14.7444 10.4279 14.9981C10.3282 15.2518 10.2873 15.5221 10.3077 15.7914V18" fill="#3F424D"/>
<path d="M10.3077 16.2879C7.23077 17.1439 7.23077 14.8611 6 14.5758M14.6154 18V15.7914C14.6385 15.5193 14.5988 15.2457 14.4991 14.9889C14.3993 14.732 14.2418 14.4979 14.0369 14.3019C15.9692 14.1021 18 13.423 18 10.307C17.9998 9.51016 17.6693 8.74392 17.0769 8.16683C17.3575 7.46972 17.3376 6.69919 17.0215 6.01529C17.0215 6.01529 16.2954 5.81555 14.6154 6.85993C13.2049 6.50542 11.7181 6.50542 10.3077 6.85993C8.62769 5.81555 7.90154 6.01529 7.90154 6.01529C7.58546 6.69919 7.56563 7.46972 7.84615 8.16683C7.24931 8.7482 6.91848 9.52137 6.92308 10.3241C6.92308 13.4173 8.95385 14.0964 10.8862 14.319C10.6837 14.513 10.5275 14.7444 10.4279 14.9981C10.3282 15.2518 10.2873 15.5221 10.3077 15.7914V18" stroke="white" stroke-linecap="round" stroke-linejoin="round"/>
</g>
</svg>
