<svg width="32" height="32" viewBox="0 0 32 32" fill="none" xmlns="http://www.w3.org/2000/svg">
<path d="M22.0142 21.3073L21.3042 22.0173C21.1042 22.2173 20.7942 22.2173 20.5942 22.0173C20.3942 21.8173 20.3942 21.5073 20.5942 21.3073L21.3042 20.5973L19.3642 18.6573L18.6542 19.3673C18.4542 19.5673 18.1442 19.5673 17.9442 19.3673C17.7442 19.1673 17.7442 18.8573 17.9442 18.6573L18.6542 17.9473L16.7142 16.0073L16.0042 16.7173C15.8042 16.9173 15.4942 16.9173 15.2942 16.7173C15.0942 16.5173 15.0942 16.2073 15.2942 16.0073L16.0042 15.2973L14.0542 13.3473L13.3442 14.0573C13.1442 14.2573 12.8342 14.2573 12.6342 14.0573C12.4342 13.8573 12.4342 13.5473 12.6342 13.3473L13.3442 12.6373L11.4042 10.6973L10.6942 11.4073C10.4942 11.6073 10.1842 11.6073 9.98425 11.4073C9.78425 11.2073 9.78425 10.8973 9.98425 10.6973L10.6942 9.98728L9.20425 8.49728C8.89425 8.18728 8.35425 8.40728 8.35425 8.85728V21.6473C8.35425 22.7473 9.25425 23.6473 10.3542 23.6473H23.1442C23.5942 23.6473 23.8142 23.1073 23.4942 22.7973L22.0142 21.3073ZM11.3542 19.6473V14.8873L17.1142 20.6473H12.3542C11.8042 20.6473 11.3542 20.1973 11.3542 19.6473Z" fill="#656A7B"/>
</svg>
