<svg width="40" height="40" viewBox="0 0 40 40" fill="none" xmlns="http://www.w3.org/2000/svg">
<path d="M28.019 27.0764L27.0723 28.0231C26.8057 28.2897 26.3923 28.2897 26.1257 28.0231C25.859 27.7564 25.859 27.3431 26.1257 27.0764L27.0723 26.1297L24.4857 23.5431L23.539 24.4897C23.2723 24.7564 22.859 24.7564 22.5923 24.4897C22.3257 24.2231 22.3257 23.8097 22.5923 23.5431L23.539 22.5964L20.9523 20.0097L20.0057 20.9564C19.739 21.2231 19.3257 21.2231 19.059 20.9564C18.7923 20.6897 18.7923 20.2764 19.059 20.0097L20.0057 19.0631L17.4057 16.4631L16.459 17.4097C16.1923 17.6764 15.779 17.6764 15.5123 17.4097C15.2457 17.1431 15.2457 16.7297 15.5123 16.4631L16.459 15.5164L13.8723 12.9297L12.9257 13.8764C12.659 14.1431 12.2457 14.1431 11.979 13.8764C11.7123 13.6097 11.7123 13.1964 11.979 12.9297L12.9257 11.9831L10.939 9.99641C10.5257 9.58308 9.80566 9.87641 9.80566 10.4764V27.5297C9.80566 28.9964 11.0057 30.1964 12.4723 30.1964H29.5257C30.1257 30.1964 30.419 29.4764 29.9923 29.0631L28.019 27.0764ZM13.8057 24.8631V18.5164L21.4857 26.1964H15.139C14.4057 26.1964 13.8057 25.5964 13.8057 24.8631Z" fill="#AAAEB9"/>
</svg>
