<svg width="51" height="50" viewBox="0 0 51 50" fill="none" xmlns="http://www.w3.org/2000/svg">
<path d="M1.44775 0.390625V49.2188H50.2759V0.390625H1.44775ZM27.2755 41.9973C26.5548 43.4617 25.179 44.4238 23.5849 44.8883C21.1353 45.4508 18.7923 45.1301 17.0493 44.084C15.8829 43.3684 14.972 42.2668 14.3536 40.9977L18.0724 38.7203C18.1048 38.734 18.2024 38.9105 18.3329 39.1387C18.8071 39.9332 19.2161 40.4957 20.02 40.8906C20.8099 41.1602 22.5438 41.3324 23.2134 39.9426C23.6224 39.2355 23.4923 36.9629 23.4923 34.4484C23.4919 30.4973 23.5103 26.5625 23.5103 22.6562H28.0841C28.0841 26.9531 28.1075 31.0227 28.0841 35.2156C28.0938 37.7859 28.3169 40.0773 27.2755 41.9973ZM46.2497 40.7051C44.6599 46.1434 35.7958 46.3199 32.2536 42.727C31.5052 41.8812 31.036 41.4395 30.5896 40.4633C32.472 39.3805 32.472 39.3805 34.3036 38.3207C35.2985 39.85 36.2185 40.691 37.8735 41.0352C40.1188 41.3094 42.3778 40.5379 41.8712 38.1531C41.3505 36.2055 37.2735 35.7316 34.4989 33.6488C31.6821 31.757 31.022 27.1602 33.3368 24.5336C34.1083 23.5621 35.4239 22.8371 36.8044 22.4887L38.245 22.3023C41.011 22.2465 42.7399 22.977 44.0091 24.3941C44.3622 24.752 44.6505 25.1379 45.1895 25.9742C43.7161 26.9133 43.7208 26.9043 41.6103 28.2707C41.1595 27.2996 40.4114 26.6902 39.6208 26.4254C38.3935 26.0535 36.8458 26.4578 36.5247 27.7547C36.4134 28.1543 36.4364 28.5262 36.6134 29.1863C37.1106 30.3203 38.7794 30.8133 40.2763 31.5012C44.5853 33.2488 46.0403 35.1227 46.3981 37.3531C46.7427 39.2734 46.3149 40.5191 46.2497 40.7051Z" fill="#F0DB4F"/>
</svg>
