<svg width="32" height="32" viewBox="0 0 32 32" fill="none" xmlns="http://www.w3.org/2000/svg">
<circle cx="16" cy="16" r="12" fill="#3F424D"/>
<path d="M22.499 21.5H20.0144V17.6022C20.0144 16.6728 19.9978 15.4763 18.7222 15.4763C17.4281 15.4763 17.2301 16.4889 17.2301 17.5345V21.4997H14.7456V13.4843H17.1307V14.5797H17.1642C17.6498 13.7479 18.5562 13.2492 19.5175 13.285C22.0357 13.285 22.5001 14.9443 22.5001 17.1029L22.499 21.5Z" fill="#656A7B"/>
<path d="M11.9421 12.3887C11.942 12.3887 11.9419 12.3887 11.9418 12.3887C11.1509 12.3887 10.5 11.7367 10.5 10.9444C10.5 10.152 11.1509 9.5 11.9418 9.5C12.7327 9.5 13.3835 10.1519 13.3837 10.9441C13.3837 10.9441 13.3837 10.9442 13.3837 10.9444C13.3837 11.7366 12.733 12.3886 11.9421 12.3887Z" fill="#656A7B"/>
<path d="M13.1844 21.5001H10.6973V13.4844H13.1844V21.5001Z" fill="#656A7B"/>
</svg>
