<svg width="61" height="60" viewBox="0 0 61 60" fill="none" xmlns="http://www.w3.org/2000/svg">
<path fill-rule="evenodd" clip-rule="evenodd" d="M39.314 16.0453C38.0934 12.2447 36.1354 8.88092 33.3764 5.98639C32.6789 5.2542 31.9036 4.58342 31.417 3.67264C31.1095 3.09607 30.8165 2.51154 30.517 1.93123L30.3267 1.45264L30.2737 1.64107C30.2489 2.58795 29.7126 3.22967 29.0451 3.8292C28.2933 4.50326 27.5939 5.23545 26.872 5.94279L24.652 8.86264L22.8572 12.1636L21.6567 15.405L21.6206 15.4551C20.9601 17.625 20.6343 19.8562 20.4745 22.109C20.414 22.9561 20.4834 23.8148 20.5308 24.6661C20.5987 25.8829 20.8101 27.0787 21.127 28.2567C22.2787 32.5345 24.6164 36.0825 27.8128 39.0975C28.4062 39.6576 29.0479 40.1672 29.6672 40.6997L29.9414 41.6409L30.1964 43.1015L30.3183 44.6264C30.3168 44.9358 30.3042 45.2465 30.3225 45.555C30.3276 45.6342 30.4308 45.7073 30.4889 45.7833L31.0064 45.9651L31.545 46.1747L31.4526 44.8195L31.4484 43.4845L31.6345 41.4511L31.7695 41.0086L32.1562 40.3237C32.6334 39.9403 33.1448 39.5915 33.5793 39.1645C34.3654 38.3925 35.1501 37.6097 35.8537 36.7636C36.7691 35.6669 37.551 34.4653 38.1829 33.1842C38.6043 32.325 39.0018 31.4484 39.3304 30.5508C39.6201 29.7595 39.7997 28.9275 40.0279 28.1133L40.0879 27.9375C40.559 25.74 40.6383 23.52 40.4653 21.2859C40.3261 19.4854 39.9028 17.7478 39.314 16.0453ZM29.9859 39.6117C30.0581 39.2503 30.1476 38.8908 30.2128 38.528C30.1476 38.8908 30.0586 39.2503 29.9859 39.6117ZM31.5876 39.8611L31.2848 39.1978L31.5876 39.8611L32.0325 40.2412L31.5876 39.8611ZM50.4098 48.2644C50.0226 47.5223 49.4545 46.9589 48.7036 46.589C48.0745 46.2797 47.3981 46.1437 46.7025 46.124C46.1812 46.109 45.6581 46.1358 45.1359 46.1423C44.6723 46.1479 44.2083 46.1559 43.7447 46.1517C43.1995 46.1461 42.6543 46.1297 42.1092 46.1142C42.0187 46.1114 41.9545 46.1297 41.9123 46.2215C41.8462 46.3645 41.7679 46.5023 41.6868 46.6589L41.7778 46.688C42.0483 46.7358 42.3201 46.7765 42.5892 46.8304C42.9351 46.8994 43.0908 47.0981 43.1067 47.3897C43.1301 47.805 43.1395 48.2212 43.1381 48.6375C43.1311 50.2847 43.1193 51.9319 43.1072 53.5786C43.1062 53.6873 43.1043 53.8008 43.0748 53.9029C43.0406 54.0211 43.0036 54.1739 42.9154 54.232C42.7569 54.3338 42.5789 54.4017 42.3928 54.4312C42.1298 54.4744 42.0858 54.4861 42.0037 54.7448L41.9681 54.8742C41.9287 55.0153 41.9498 55.0429 42.097 55.0444C42.9417 55.0537 43.7859 55.072 44.6301 55.0692C45.4003 55.0664 46.1704 55.1133 46.9378 54.9684C47.6629 54.832 48.3398 54.5929 48.9576 54.1884C49.7592 53.6629 50.3358 52.9608 50.64 52.0444C50.8856 51.3042 50.9404 50.549 50.857 49.7751C50.8049 49.2478 50.6532 48.7351 50.4098 48.2644ZM48.93 52.7929C48.4781 53.6339 47.804 54.1954 46.8408 54.3436C46.2375 54.4359 45.6333 54.4092 45.0581 54.1809C44.6939 54.0365 44.5584 53.722 44.5472 53.3503C44.5368 52.986 44.5317 52.6216 44.5317 52.2572C44.5298 50.9756 44.5298 49.694 44.5317 48.4129C44.5326 48.0094 44.5397 47.6048 44.5462 47.2008C44.5509 46.9167 44.6104 46.8215 44.8875 46.7986C46.1043 46.6964 47.2654 46.8276 48.2297 47.684C48.8259 48.2137 49.1653 48.8892 49.3064 49.665C49.365 49.9884 49.3828 50.3194 49.4193 50.6475C49.3898 51.3965 49.2886 52.1255 48.93 52.7929ZM59.1436 51.405C58.9036 50.8209 58.4489 50.4548 57.8775 50.2205C57.6825 50.1403 57.4814 50.0742 57.2709 49.9964L57.3445 49.9495C57.5718 49.8037 57.825 49.6861 58.0209 49.5065C58.4972 49.0701 58.695 48.5212 58.6022 47.8692C58.514 47.249 58.2047 46.7939 57.652 46.4986C57.1504 46.2314 56.6095 46.1339 56.0498 46.1344C55.0814 46.1353 54.1125 46.1498 53.144 46.1517C52.8103 46.1522 52.4765 46.1273 52.1428 46.1226C52.0781 46.1217 51.982 46.1381 51.9543 46.1812C51.8779 46.2984 51.8273 46.4334 51.7729 46.5637C51.7415 46.6397 51.7725 46.6814 51.8592 46.6926C52.0922 46.7245 52.3247 46.7644 52.5581 46.799C52.8806 46.8473 53.0367 47.0151 53.0564 47.34L53.0606 47.5326C53.0611 48.5428 53.0643 49.5529 53.0601 50.5631C53.0541 51.5719 53.0446 52.5806 53.0315 53.5894C53.0301 53.7164 53.0128 53.8439 52.9945 53.97C52.9668 54.1603 52.8651 54.2915 52.6701 54.3328L52.1184 54.4415C52.0533 54.4547 51.959 54.4528 51.9323 54.4931C51.8311 54.6445 51.7495 54.81 51.7608 55.0097L51.8175 55.0251L53.6704 55.0706L54.0422 55.0692C54.6834 55.0617 55.3256 55.0744 55.9659 55.0415C56.6592 55.0069 57.3103 54.8011 57.9122 54.4472C58.5529 54.0698 59.0461 53.5725 59.2214 52.8244C59.3339 52.3467 59.3344 51.8662 59.1436 51.405ZM54.4359 47.1014C54.4387 46.8984 54.5283 46.8103 54.7298 46.8051C55.2262 46.7915 55.7193 46.7944 56.1984 46.9655C56.8181 47.1867 57.1992 47.7211 57.1922 48.374C57.1889 48.6248 57.1926 48.8733 57.1003 49.1142C56.9179 49.5886 56.5683 49.8389 56.0723 49.8876C55.8136 49.9139 55.5525 49.9167 55.3218 49.9289L54.5522 49.8951C54.45 49.8914 54.4054 49.8464 54.4059 49.7414L54.4359 47.1014ZM57.6262 53.4267C57.3783 53.9662 56.9264 54.2498 56.3606 54.3483C55.9097 54.4256 55.4474 54.4053 55.005 54.2887C54.674 54.2039 54.539 53.9381 54.4729 53.6433C54.4284 53.4459 54.4359 53.2111 54.4322 53.0058C54.4261 52.6889 54.4308 52.0312 54.4308 52.0312H54.4242C54.4242 51.5625 54.4256 51.1565 54.4228 50.707C54.4223 50.61 54.4387 50.5617 54.5573 50.5654C54.9783 50.5781 55.4006 50.5851 55.8215 50.6015C56.1979 50.6161 56.5504 50.7276 56.8818 50.9062C57.3862 51.1781 57.69 51.5944 57.7734 52.1662C57.8372 52.5998 57.81 53.0264 57.6262 53.4267ZM11.4136 53.932L11.4225 51.3834C11.4239 51 11.3751 50.624 11.2495 50.2603C10.9031 49.2586 9.94779 48.8025 8.9531 49.162C8.50076 49.3256 8.09529 49.5736 7.7081 49.8548C7.48263 50.0189 7.48263 50.0189 7.31951 49.785C6.85779 49.1231 6.19826 48.8967 5.43044 49.1409C4.93404 49.2984 4.49997 49.568 4.08888 49.8811C4.05044 49.9101 3.9731 49.9425 3.95013 49.9251C3.91169 49.8965 3.88497 49.8286 3.88591 49.7775L3.91404 49.3247C3.91638 49.2295 3.8981 49.1339 3.88872 49.034C3.7031 49.0983 3.55497 49.1625 3.39982 49.2C2.92029 49.3172 2.43747 49.425 1.95513 49.5351C1.83841 49.5619 1.71513 49.597 1.70388 49.7311C1.69216 49.8628 1.81919 49.8848 1.91763 49.9242C2.12482 50.0076 2.3306 50.0962 2.53544 50.1862C2.70747 50.2622 2.77169 50.3995 2.77076 50.5842C2.76747 51.374 2.77263 52.163 2.76794 52.9528C2.76607 53.2739 2.75107 53.5945 2.73654 53.9156C2.72341 54.2001 2.62638 54.3192 2.35076 54.3909C2.20451 54.4294 2.05591 54.4551 1.90872 54.4898C1.87638 54.4973 1.82107 54.5179 1.8206 54.5339C1.81451 54.6731 1.80701 54.8156 1.83044 54.9511C1.83513 54.9754 1.98232 54.9755 2.06388 54.9848L2.11872 54.9815C2.68685 54.9731 3.25497 54.9642 3.82357 54.9581C4.12497 54.9548 4.42591 54.9576 4.7531 54.9576L4.78826 54.503C4.60076 54.4687 4.43341 54.443 4.26841 54.4069C4.01107 54.3506 3.90138 54.2142 3.89482 53.9545L3.89013 53.5828C3.88732 52.6186 3.88357 51.6548 3.88357 50.6906C3.88357 50.5504 3.94169 50.4394 4.06497 50.3554C4.32607 50.1792 4.60169 50.039 4.90685 49.9608C5.54997 49.7962 6.10779 50.025 6.35529 50.572C6.43357 50.7445 6.49497 50.9353 6.51232 51.1228C6.60326 52.0894 6.56388 53.0569 6.50904 54.0234C6.49732 54.232 6.39935 54.337 6.19357 54.3881L5.70982 54.4903C5.67091 54.5001 5.61419 54.4739 5.61138 54.5062C5.6006 54.6398 5.60669 54.8447 5.60669 54.8447H5.72201L7.19482 54.893C7.59841 54.892 8.00247 54.9408 8.4056 54.9511C8.47779 54.9525 8.54201 54.9633 8.54622 54.8798C8.55083 54.7503 8.54911 54.6206 8.54107 54.4912L8.46419 54.4776L8.04935 54.3844C7.76951 54.3183 7.67294 54.2119 7.67201 53.9287C7.66872 53.2308 7.6781 52.5333 7.67201 51.8358C7.66842 51.4368 7.65357 51.0381 7.62747 50.64C7.62044 50.534 7.63685 50.4647 7.72122 50.4051C7.96578 50.2264 8.24091 50.0937 8.5331 50.0137C9.44013 49.7747 10.1826 50.272 10.2295 51.2072C10.2754 52.109 10.2562 53.0142 10.2492 53.9179C10.2468 54.2325 10.1428 54.3276 9.83294 54.412L9.72607 54.4397C9.40872 54.5156 9.41154 54.5156 9.43029 54.8526C9.43638 54.9581 9.46544 54.9853 9.57794 54.9825C10.2243 54.9679 10.8708 54.9642 11.5172 54.9586C11.7815 54.9562 12.0459 54.9586 12.3337 54.9586L12.3923 54.5198C12.1397 54.4528 11.9067 54.4031 11.6817 54.3295C11.4829 54.262 11.4126 54.142 11.4136 53.932ZM33.674 50.069C33.9403 49.822 33.9422 49.4958 33.8676 49.1334C33.6567 49.3542 33.4204 49.4559 33.1509 49.4751C32.7895 49.5009 32.4347 49.4695 32.0981 49.3256C31.1878 48.9347 30.2915 48.9623 29.3981 49.3912C28.6467 49.7512 28.1845 50.3123 28.1381 51.1631C28.1086 51.7083 28.2108 52.2244 28.5745 52.6579C28.7925 52.9176 29.0723 53.0859 29.3878 53.2022C29.5237 53.2523 29.534 53.317 29.4201 53.4037C29.336 53.4673 29.2489 53.5267 29.159 53.5819C28.9686 53.7015 28.7771 53.8194 28.5843 53.9353C28.4714 54.0037 28.4329 54.0909 28.47 54.2245C28.5783 54.6173 28.8572 54.8442 29.2059 55.0097L29.3329 55.0983L29.2218 55.2094C28.8801 55.4864 28.5248 55.7479 28.1976 56.0419C27.9229 56.2889 27.8344 56.6198 27.9173 56.985C28.0847 57.7139 28.5679 58.1648 29.2537 58.372C30.4523 58.7348 31.5778 58.5267 32.6039 57.8165C33.2123 57.3951 33.6487 56.8467 33.7814 56.092C33.93 55.244 33.4589 54.5081 32.6156 54.3562C32.0578 54.255 31.4869 54.2259 30.9225 54.1612C30.659 54.1312 30.3918 54.1134 30.1354 54.053C29.9175 54.0014 29.8092 53.8237 29.8293 53.6503C29.8495 53.4797 30.0309 53.3208 30.2386 53.3044C30.6567 53.2706 31.0664 53.2054 31.4517 53.0292C32.4726 52.5623 32.9465 51.7448 32.8279 50.6442C32.8125 50.4961 32.7787 50.3498 32.7483 50.1773C33.075 50.2322 33.4092 50.3151 33.674 50.069ZM30.5761 55.2333C30.9914 55.2454 31.4639 55.2712 31.9204 55.4048C32.3222 55.522 32.6526 55.7273 32.7501 56.1759C32.8678 56.7178 32.6072 57.2569 32.0826 57.5465C31.5914 57.8175 31.0579 57.84 30.517 57.7842C30.0539 57.7364 29.6372 57.5761 29.3034 57.2339C28.8637 56.7834 28.8614 56.16 29.3015 55.7109C29.6948 55.3097 29.9053 55.2267 30.5761 55.2333ZM31.6153 51.9698C31.3734 52.7437 30.6693 52.8506 30.1176 52.6031C29.6475 52.3926 29.4426 51.9783 29.3353 51.5053C29.2936 51.3234 29.2837 51.1345 29.2593 50.9484C29.2692 50.6817 29.3133 50.4258 29.4281 50.1858C29.7801 49.4465 30.645 49.4906 31.1236 49.8253C31.3289 49.9687 31.4718 50.1637 31.5614 50.3948C31.7607 50.8979 31.7797 51.4544 31.6153 51.9698ZM27.2231 54.4369C27.0556 54.4112 26.8901 54.3743 26.7276 54.3262C26.4426 54.239 26.4079 54.1856 26.4047 53.8842C26.3962 53.0442 26.3906 52.2042 26.3812 51.3647C26.3765 50.9869 26.3315 50.6142 26.2158 50.2533C25.9111 49.3017 24.9778 48.7908 24.044 49.0715C23.5265 49.2276 23.0822 49.5178 22.6683 49.8586L22.5173 49.9744L22.5178 49.8192C22.5276 49.6406 22.5468 49.462 22.5454 49.2834C22.5445 49.1901 22.5089 49.0964 22.4915 49.0144C22.1386 49.1208 21.8222 49.2276 21.4992 49.3092C21.1753 49.3908 20.8448 49.4461 20.5172 49.5126C20.3545 49.5454 20.235 49.6439 20.2378 49.7559C20.242 49.9139 20.3728 49.9444 20.4872 49.9917C20.6943 50.0765 20.9011 50.1623 21.1059 50.2533C21.2522 50.3184 21.3117 50.4394 21.3103 50.5964C21.3 51.6881 21.2934 52.7803 21.2775 53.8725C21.2728 54.2175 21.1856 54.3084 20.8462 54.3844L20.6981 54.4139C20.384 54.4678 20.3751 54.4804 20.3967 54.8119L20.3986 54.8667C20.3948 54.9942 20.4506 55.0354 20.5819 55.034C21.4162 55.0242 22.2511 55.0195 23.0854 55.0228C23.4431 55.0242 23.4815 54.9961 23.474 54.6286L23.4572 54.4706C23.2528 54.4364 23.0573 54.4115 22.8661 54.3694C22.6659 54.3248 22.5942 54.2428 22.5754 54.0394C22.5581 53.8533 22.5525 53.6644 22.5506 53.4769C22.5412 52.6186 22.5337 51.7603 22.5295 50.9025C22.5286 50.6864 22.5684 50.4858 22.7672 50.3465C23.0597 50.1375 23.4045 50.0138 23.7633 49.9894C24.5076 49.9383 25.0734 50.3794 25.1137 51.1214C25.1634 52.0369 25.1484 52.9556 25.1601 53.873C25.1611 53.9414 25.1489 54.0103 25.1395 54.0783C25.1217 54.2123 25.0561 54.3131 24.9201 54.3478C24.7875 54.3825 24.6529 54.4134 24.5175 54.434C24.3154 54.464 24.3112 54.4626 24.2958 54.6665L24.3009 54.8039C24.3248 55.0411 24.3253 55.034 24.5653 55.0317C25.3725 55.0251 26.1792 55.0209 26.9859 55.0219C27.3234 55.0228 27.3473 55.0069 27.3501 54.659L27.3492 54.5765C27.3543 54.4875 27.3145 54.4514 27.2231 54.4369ZM38.4975 49.1292C37.6514 48.9225 36.8489 49.0762 36.0867 49.4705C35.3461 49.8534 34.8511 50.4454 34.6626 51.263C34.4723 52.0894 34.5633 52.8956 34.9284 53.663C35.1661 54.1612 35.5317 54.5465 36.0295 54.7969C37.1948 55.3837 38.6203 55.1175 39.5343 54.3323C40.2558 53.7131 40.5206 52.8886 40.5365 51.8681C40.5267 51.7659 40.5168 51.569 40.4897 51.374C40.3364 50.2631 39.5672 49.3908 38.4975 49.1292ZM39.1383 53.4206C38.9137 54.3047 38.1492 54.6975 37.2867 54.3937C36.8465 54.239 36.5175 53.9433 36.2962 53.5434C35.7872 52.6247 35.6892 51.6478 35.9789 50.6456C36.172 49.9781 36.7214 49.6129 37.3748 49.6589C37.9589 49.6997 38.4079 49.98 38.7375 50.4553C39.0848 50.9569 39.2189 51.5273 39.2545 52.1264C39.2606 52.2225 39.2554 52.3186 39.2554 52.4151L39.2967 52.4198C39.2451 52.754 39.2208 53.0948 39.1383 53.4206ZM17.2176 49.1147C16.3275 48.9112 15.4936 49.1123 14.7211 49.5647C14.0531 49.9556 13.6214 50.5397 13.4559 51.3028C13.3008 52.0158 13.364 52.7165 13.6167 53.3995C13.7704 53.8158 14.0034 54.1819 14.3451 54.4673C15.0647 55.0678 15.9056 55.2197 16.8004 55.0523C17.5579 54.9103 18.2236 54.5737 18.7073 53.9442C19.1601 53.3554 19.3326 52.6795 19.3504 51.9469C19.3237 51.7148 19.3172 51.4786 19.2679 51.2522C19.0233 50.122 18.3623 49.3758 17.2176 49.1147ZM17.9437 53.4178C17.7267 54.2972 16.95 54.6998 16.0936 54.3961C15.5437 54.2006 15.1856 53.798 14.9592 53.2819C14.5964 52.4526 14.5223 51.5897 14.7572 50.715C14.9372 50.0461 15.4795 49.5534 16.3097 49.6715C16.8192 49.7437 17.2167 50.0039 17.5129 50.4178C17.9133 50.9761 18.045 51.6154 18.0633 52.2872V52.4245L18.097 52.4297C18.0478 52.7597 18.0234 53.0953 17.9437 53.4178Z" fill="#4FAA41"/>
</svg>
